<?xml version="1.0" encoding="UTF-8"?>
<svg version="1.1" xmlns="http://www.w3.org/2000/svg" width="240" height="240">
<path d="M0 0 C1.18296661 -0.0071553 2.36593323 -0.01431061 3.58474731 -0.02168274 C4.87931854 -0.02437164 6.17388977 -0.02706055 7.50769043 -0.02983093 C8.88780894 -0.03609913 10.26792577 -0.04274624 11.64804077 -0.04974365 C16.1787194 -0.07075359 20.70939823 -0.08114687 25.2401123 -0.09111023 C26.80372637 -0.09515969 28.36734027 -0.09927666 29.93095398 -0.10346031 C37.28219226 -0.12250951 44.63342054 -0.13673807 51.98467875 -0.14507228 C60.44839285 -0.15482775 68.91184424 -0.18110396 77.37546587 -0.22157317 C83.93024675 -0.25183039 90.48495277 -0.26655043 97.03980207 -0.26985329 C100.9481673 -0.2721939 104.85625182 -0.28102339 108.76454163 -0.30631447 C112.44840946 -0.32976754 116.13181525 -0.33376023 119.81573868 -0.32355309 C121.79344928 -0.32282948 123.77113733 -0.34180127 125.74874878 -0.36161804 C140.53302255 -0.27646072 153.40984346 4.95530422 164.2088623 15.14717102 C175.44160998 28.68826652 178.35322007 42.2163135 178.36999512 59.46968079 C178.37496002 60.69667191 178.37992493 61.92366302 178.38504028 63.18783569 C178.39710325 66.53950988 178.4045955 69.89112205 178.40905094 73.24281049 C178.41199448 75.34369942 178.41610171 77.44458305 178.42055511 79.54546928 C178.43421351 86.13851537 178.44388722 92.73154915 178.44775701 99.32460839 C178.4522283 106.89793478 178.4697398 114.47107985 178.4987576 122.04435116 C178.52048638 127.92237314 178.53046728 133.80034453 178.53179812 139.67840618 C178.53283855 143.1776183 178.53858094 146.67665962 178.55661774 150.17582893 C178.57640379 154.09024313 178.57176521 158.00443692 178.56530762 161.91889954 C178.5745224 163.05446289 178.58373718 164.19002625 178.5932312 165.36000061 C178.51061716 181.47205425 174.48312873 196.42261334 163.21276855 208.37373352 C154.2130332 216.33841159 142.55591433 222.24387688 130.41772461 222.29434204 C129.234758 222.30149734 128.05179138 222.30865265 126.83297729 222.31602478 C125.53840607 222.31871368 124.24383484 222.32140259 122.91003418 222.32417297 C121.52991567 222.33044117 120.14979884 222.33708828 118.76968384 222.34408569 C114.23900521 222.36509564 109.70832638 222.37548891 105.1776123 222.38545227 C103.61399824 222.38950173 102.05038434 222.3936187 100.48677063 222.39780235 C93.13553235 222.41685155 85.78430407 222.43108011 78.43304586 222.43941432 C69.96933176 222.44916979 61.50588037 222.475446 53.04225874 222.51591522 C46.48747786 222.54617243 39.93277184 222.56089247 33.37792253 222.56419533 C29.46955731 222.56653594 25.56147279 222.57536543 21.65318298 222.60065651 C17.96931515 222.62410958 14.28590936 222.62810227 10.60198593 222.61789513 C8.62427533 222.61717152 6.64658728 222.63614331 4.66897583 222.65596008 C-7.68020867 222.58482886 -17.65772556 219.15036684 -27.7911377 212.14717102 C-28.41633301 211.71920227 -29.04152832 211.29123352 -29.68566895 210.85029602 C-40.03385516 202.9081215 -45.8401286 190.05023316 -47.58323097 177.37009621 C-48.04014786 172.48477054 -47.93830778 167.5717372 -47.93640137 162.66938782 C-47.93975998 161.42621796 -47.94311859 160.1830481 -47.94657898 158.90220642 C-47.95442813 155.50741089 -47.9577552 152.11267655 -47.95839477 148.7178762 C-47.95910784 146.59222705 -47.96124703 144.46658423 -47.96389198 142.34093666 C-47.97313073 134.91184205 -47.97722873 127.48276533 -47.97644043 120.05366516 C-47.9758401 113.15032892 -47.98638682 106.24707093 -48.00218409 99.34375447 C-48.01529925 93.39870422 -48.02062266 87.45367943 -48.01998502 81.50861484 C-48.01973119 77.96597811 -48.02251837 74.423411 -48.03316307 70.8807888 C-48.04472622 66.92487461 -48.04007296 62.96906611 -48.03405762 59.01313782 C-48.03967712 57.85384262 -48.04529663 56.69454742 -48.05108643 55.50012207 C-47.98675057 38.79596862 -43.30797802 25.40798242 -31.7911377 13.14717102 C-23.2164523 5.43268496 -11.60043103 0.04822941 0 0 Z M20.2088623 69.14717102 C20.2088623 96.86717102 20.2088623 124.58717102 20.2088623 153.14717102 C24.4988623 153.14717102 28.7888623 153.14717102 33.2088623 153.14717102 C33.2088623 125.42717102 33.2088623 97.70717102 33.2088623 69.14717102 C28.9188623 69.14717102 24.6288623 69.14717102 20.2088623 69.14717102 Z M47.2088623 69.14717102 C47.2088623 96.86717102 47.2088623 124.58717102 47.2088623 153.14717102 C51.4988623 153.14717102 55.7888623 153.14717102 60.2088623 153.14717102 C60.2088623 132.68717102 60.2088623 112.22717102 60.2088623 91.14717102 C61.1988623 91.14717102 62.1888623 91.14717102 63.2088623 91.14717102 C63.51690796 92.48159241 63.51690796 92.48159241 63.83117676 93.8429718 C66.52398106 105.0801015 69.89596298 116.04704372 73.43713379 127.04316711 C74.40997325 130.06444152 75.37541496 133.08800726 76.33972168 136.11201477 C76.9558406 138.03792964 77.57236161 139.96371594 78.18933105 141.88935852 C78.47785446 142.79128937 78.76637787 143.69322021 79.06364441 144.6224823 C79.33094864 145.45160126 79.59825287 146.28072021 79.87365723 147.13496399 C80.10808029 147.86391876 80.34250336 148.59287354 80.58403015 149.34391785 C81.18863232 151.21481534 81.18863232 151.21481534 82.2088623 153.14717102 C86.8288623 153.14717102 91.4488623 153.14717102 96.2088623 153.14717102 C94.93305806 147.86112052 93.49561426 142.67414246 91.8104248 137.50263977 C91.57921432 136.78690796 91.34800385 136.07117615 91.10978699 135.33375549 C90.35430405 132.99968915 89.59435526 130.66710938 88.8338623 128.33467102 C88.57374359 127.53368988 88.31362488 126.73270874 88.04562378 125.90745544 C83.4979074 111.90940317 78.77910678 97.97303683 73.95544434 84.06782532 C73.71091019 83.36147949 73.46637604 82.65513367 73.21443176 81.92738342 C72.55586133 80.02665583 71.89478523 78.12679693 71.23352051 76.227005 C70.2088623 73.14717102 70.2088623 73.14717102 69.2088623 69.14717102 C61.9488623 69.14717102 54.6888623 69.14717102 47.2088623 69.14717102 Z M98.2088623 69.14717102 C98.2088623 96.86717102 98.2088623 124.58717102 98.2088623 153.14717102 C102.4988623 153.14717102 106.7888623 153.14717102 111.2088623 153.14717102 C111.2088623 125.42717102 111.2088623 97.70717102 111.2088623 69.14717102 C106.9188623 69.14717102 102.6288623 69.14717102 98.2088623 69.14717102 Z " fill="#010101" transform="translate(54.7911376953125,8.852828979492188)"/>
<path d="M0 0 C2 3 2 3 2 5 C2.66 5 3.32 5 4 5 C4.33 7.31 4.66 9.62 5 12 C4.54625 11.34 4.0925 10.68 3.625 10 C3.08875 9.34 2.5525 8.68 2 8 C1.34 8 0.68 8 0 8 C0 5.36 0 2.72 0 0 Z " fill="#2A2024" transform="translate(116,101)"/>
<path d="M0 0 C2 2 2 2 2 5 C2.99 5.33 3.98 5.66 5 6 C5 8.97 5 11.94 5 15 C3.25050228 12.37575342 2.34610019 10.44272784 1.375 7.5 C0.98441406 6.33984375 0.98441406 6.33984375 0.5859375 5.15625 C0 3 0 3 0 0 Z " fill="#312D2F" transform="translate(127,88)"/>
<path d="M0 0 C0.33 0 0.66 0 1 0 C1 3.63 1 7.26 1 11 C-1.0625 8.6875 -1.0625 8.6875 -3 6 C-2.67 5.01 -2.34 4.02 -2 3 C-2 3.66 -2 4.32 -2 5 C-1.34 5 -0.68 5 0 5 C0 3.35 0 1.7 0 0 Z " fill="#1A1417" transform="translate(151,148)"/>
</svg>
