<?xml version="1.0" encoding="UTF-8"?>
<!DOCTYPE svg PUBLIC "-//W3C//DTD SVG 1.1//EN" "http://www.w3.org/Graphics/SVG/1.1/DTD/svg11.dtd">
<svg xmlns="http://www.w3.org/2000/svg" version="1.1" width="240px" height="240px" style="shape-rendering:geometricPrecision; text-rendering:geometricPrecision; image-rendering:optimizeQuality; fill-rule:evenodd; clip-rule:evenodd" xmlns:xlink="http://www.w3.org/1999/xlink">
  <g><path style="opacity:0.998" fill="#ffffff" d="M 38.5,4.5 C 92.501,4.33334 146.501,4.50001 200.5,5C 217.654,8.82054 228.154,19.3205 232,36.5C 232.667,91.5 232.667,146.5 232,201.5C 228.619,219.215 218.119,230.048 200.5,234C 146.5,234.667 92.5,234.667 38.5,234C 20.881,230.048 10.381,219.215 7,201.5C 6.33333,146.5 6.33333,91.5 7,36.5C 11.0273,19.307 21.5273,8.64029 38.5,4.5 Z M 73.5,76.5 C 77.8333,76.5 82.1667,76.5 86.5,76.5C 86.5,105.5 86.5,134.5 86.5,163.5C 82.1667,163.5 77.8333,163.5 73.5,163.5C 74.4706,134.475 74.4706,105.475 73.5,76.5 Z M 123.5,78.5 C 130.436,100.973 137.769,123.306 145.5,145.5C 146.371,150.445 148.037,155.111 150.5,159.5C 151.5,131.841 151.833,104.175 151.5,76.5C 155.833,76.5 160.167,76.5 164.5,76.5C 164.5,105.5 164.5,134.5 164.5,163.5C 155.143,163.832 145.81,163.498 136.5,162.5C 130.331,142.663 123.998,122.997 117.5,103.5C 117.778,101.654 117.111,100.32 115.5,99.5C 114.5,120.823 114.167,142.156 114.5,163.5C 110.167,163.5 105.833,163.5 101.5,163.5C 101.5,134.5 101.5,105.5 101.5,76.5C 109.111,75.9238 116.444,76.5905 123.5,78.5 Z"/></g>
  <g><path style="opacity:0.205" fill="#ffffff" d="M 123.5,78.5 C 116.444,76.5905 109.111,75.9238 101.5,76.5C 101.5,105.5 101.5,134.5 101.5,163.5C 100.502,134.338 100.169,105.005 100.5,75.5C 108.167,75.5 115.833,75.5 123.5,75.5C 123.5,76.5 123.5,77.5 123.5,78.5 Z"/></g>
  <g><path style="opacity:0.315" fill="#ffffff" d="M 164.5,76.5 C 160.167,76.5 155.833,76.5 151.5,76.5C 151.833,104.175 151.5,131.841 150.5,159.5C 148.037,155.111 146.371,150.445 145.5,145.5C 147.086,144.587 148.586,144.587 150,145.5C 150.5,122.169 150.667,98.8357 150.5,75.5C 155.363,75.1805 160.03,75.5139 164.5,76.5 Z"/></g>
  <g><path style="opacity:0.108" fill="#ffffff" d="M 73.5,76.5 C 77.97,75.5139 82.6367,75.1805 87.5,75.5C 87.8314,105.005 87.4981,134.338 86.5,163.5C 86.5,134.5 86.5,105.5 86.5,76.5C 82.1667,76.5 77.8333,76.5 73.5,76.5 Z"/></g>
  <g><path style="opacity:0.175" fill="#ffffff" d="M 117.5,103.5 C 116.778,103.082 116.278,102.416 116,101.5C 115.832,122.337 115.332,143.004 114.5,163.5C 114.167,142.156 114.5,120.823 115.5,99.5C 117.111,100.32 117.778,101.654 117.5,103.5 Z"/></g>
</svg>
