<?xml version="1.0" standalone="no"?>
<!DOCTYPE svg PUBLIC "-//W3C//DTD SVG 20010904//EN"
 "http://www.w3.org/TR/2001/REC-SVG-20010904/DTD/svg10.dtd">
<svg version="1.0" xmlns="http://www.w3.org/2000/svg"
 width="3674.000000pt" height="6155.000000pt" viewBox="0 0 3674.000000 6155.000000"
 preserveAspectRatio="xMidYMid meet">

<g transform="translate(0.000000,6155.000000) scale(0.100000,-0.100000)"
fill="#000000" stroke="none">
<path d="M790 30730 l0 -30110 2635 0 2635 0 0 30100 c0 16555 0 30103 0
30108 0 4 -1186 8 -2635 10 l-2635 2 0 -30110z"/>
<path d="M11490 30730 l0 -30110 2630 0 2630 0 1 22128 c0 21703 1 22126 19
22087 17 -35 65 -182 155 -475 15 -47 35 -110 45 -140 10 -30 39 -122 65 -205
26 -82 55 -175 65 -205 10 -30 39 -122 65 -205 26 -82 73 -233 105 -335 138
-435 195 -617 255 -805 35 -110 89 -281 120 -380 31 -99 72 -227 90 -285 43
-135 150 -473 225 -710 32 -102 88 -277 123 -390 36 -113 91 -286 122 -385 67
-211 100 -317 188 -595 36 -113 92 -290 125 -395 33 -104 90 -282 125 -395 36
-113 91 -286 122 -385 31 -99 60 -191 65 -205 5 -14 30 -92 55 -175 26 -82 55
-175 65 -205 10 -30 35 -109 55 -175 20 -66 45 -145 55 -175 10 -30 34 -104
53 -165 50 -159 136 -430 207 -655 34 -107 87 -274 117 -370 30 -96 70 -222
89 -280 18 -58 43 -136 54 -175 12 -38 30 -95 40 -125 10 -30 34 -104 53 -165
19 -60 60 -189 90 -285 30 -96 79 -249 107 -340 97 -308 122 -385 140 -440 17
-53 90 -284 132 -420 11 -36 28 -90 38 -120 18 -55 43 -131 140 -440 28 -91
77 -244 107 -340 30 -96 71 -224 90 -285 19 -60 43 -135 53 -165 10 -30 27
-84 38 -120 11 -36 46 -146 77 -245 31 -99 73 -229 92 -290 19 -60 38 -121 43
-135 5 -14 32 -99 60 -190 28 -91 80 -255 115 -365 35 -110 89 -281 120 -380
31 -99 61 -191 65 -205 5 -14 34 -106 65 -205 32 -99 72 -227 90 -285 18 -58
61 -193 95 -300 61 -194 142 -450 245 -775 30 -93 66 -208 80 -255 15 -47 35
-110 45 -140 10 -30 40 -122 65 -205 75 -241 106 -336 125 -395 10 -30 39
-122 65 -205 26 -82 62 -197 80 -255 185 -584 270 -853 340 -1075 109 -344
126 -400 135 -425 5 -14 34 -106 65 -205 31 -99 85 -270 120 -380 131 -414
185 -584 230 -730 26 -82 58 -181 70 -220 13 -38 42 -131 65 -205 23 -74 50
-160 60 -190 10 -30 34 -104 53 -165 19 -60 60 -189 90 -285 123 -389 178
-563 232 -735 31 -99 60 -191 65 -205 5 -14 30 -92 55 -175 26 -82 55 -175 65
-205 22 -66 71 -220 135 -425 25 -82 50 -161 55 -175 5 -14 32 -99 60 -190 80
-255 180 -572 190 -600 5 -14 30 -92 55 -175 26 -82 55 -175 65 -205 10 -30
39 -122 65 -205 26 -82 55 -175 65 -205 10 -30 35 -109 55 -175 21 -66 54
-174 75 -240 80 -250 171 -536 225 -710 31 -99 61 -191 65 -205 5 -14 34 -106
65 -205 32 -99 72 -227 90 -285 18 -58 61 -193 95 -300 63 -198 137 -431 254
-800 35 -113 90 -286 121 -385 62 -197 91 -288 188 -595 36 -113 93 -293 127
-400 34 -107 90 -285 125 -395 96 -302 174 -551 202 -640 44 -141 104 -329
113 -355 5 -14 30 -92 55 -175 26 -82 62 -197 80 -255 144 -455 241 -761 342
-1080 30 -96 70 -222 89 -280 18 -58 43 -136 54 -175 12 -38 30 -95 40 -125
10 -30 34 -104 53 -165 50 -159 136 -430 207 -655 34 -107 87 -274 117 -370
30 -96 70 -222 89 -280 18 -58 43 -136 54 -175 12 -38 30 -95 40 -125 10 -30
34 -104 53 -165 19 -60 60 -189 90 -285 30 -96 79 -249 107 -340 97 -308 122
-385 140 -440 17 -53 90 -284 132 -420 11 -36 28 -90 38 -120 18 -55 44 -135
140 -440 28 -91 80 -255 115 -365 35 -110 89 -281 120 -380 32 -99 72 -227 91
-285 18 -58 43 -136 54 -175 12 -38 30 -95 40 -125 18 -55 44 -135 140 -440
64 -204 168 -531 225 -710 23 -74 59 -189 80 -255 20 -66 45 -145 55 -175 10
-30 39 -122 65 -205 25 -82 50 -161 55 -175 5 -14 34 -106 65 -205 31 -99 86
-272 122 -385 96 -304 174 -550 248 -785 37 -115 70 -221 75 -235 5 -14 30
-92 55 -175 26 -82 55 -175 65 -205 10 -30 39 -122 65 -205 26 -82 62 -197 80
-255 18 -58 61 -193 95 -300 34 -107 90 -285 125 -395 35 -110 89 -281 120
-380 106 -335 126 -400 135 -425 5 -14 34 -106 65 -205 49 -156 155 -491 201
-637 l16 -48 2634 0 2634 0 0 30110 0 30110 -2635 0 -2635 0 0 -20790 c0
-11435 -4 -20790 -8 -20790 -9 0 -31 65 -382 1130 -128 388 -278 845 -335
1015 -56 171 -212 641 -345 1045 -133 404 -288 875 -345 1045 -56 171 -212
641 -345 1045 -133 404 -288 875 -345 1045 -57 171 -212 641 -345 1045 -133
404 -288 875 -345 1045 -56 171 -212 641 -345 1045 -314 954 -496 1505 -635
1925 -62 187 -217 657 -345 1045 -128 388 -283 858 -345 1045 -62 187 -217
657 -345 1045 -128 388 -283 858 -345 1045 -62 187 -217 657 -345 1045 -128
388 -278 845 -335 1015 -57 171 -212 641 -345 1045 -133 404 -289 875 -345
1045 -57 171 -212 641 -345 1045 -133 404 -289 875 -345 1045 -57 171 -212
641 -345 1045 -133 404 -288 875 -345 1045 -57 171 -212 641 -345 1045 -133
404 -288 875 -345 1045 -57 171 -212 641 -345 1045 -133 404 -288 875 -345
1045 -57 171 -212 641 -345 1045 -133 404 -288 875 -345 1045 -113 343 -285
862 -635 1925 -128 388 -283 858 -345 1045 -62 187 -217 657 -345 1045 -128
388 -279 845 -335 1015 -57 171 -212 641 -345 1045 -133 404 -289 875 -345
1045 -57 171 -216 654 -355 1075 -139 421 -294 891 -345 1045 -51 154 -206
624 -345 1045 -139 421 -280 847 -313 948 l-61 182 -2763 0 -2763 0 0 -30110z"/>
</g>
</svg>
