<?xml version="1.0" standalone="no"?>
<!DOCTYPE svg PUBLIC "-//W3C//DTD SVG 20010904//EN"
 "http://www.w3.org/TR/2001/REC-SVG-20010904/DTD/svg10.dtd">
<svg version="1.0" xmlns="http://www.w3.org/2000/svg"
 width="750.000000pt" height="756.000000pt" viewBox="0 0 750.000000 756.000000"
 preserveAspectRatio="xMidYMid meet">

<g transform="translate(0.000000,756.000000) scale(0.100000,-0.100000)"
fill="#000000" stroke="none">
<path d="M3540 7544 c-30 -2 -118 -11 -195 -19 -1498 -163 -2757 -1226 -3184
-2689 -163 -556 -193 -1181 -85 -1755 117 -621 375 -1178 783 -1691 152 -192
475 -498 692 -657 533 -392 1153 -629 1834 -705 272 -30 733 -13 1015 38 668
120 1284 413 1791 852 540 467 937 1077 1144 1757 113 372 159 692 160 1100 0
444 -55 792 -190 1200 -191 580 -510 1086 -956 1520 -593 577 -1342 931 -2179
1030 -131 15 -518 27 -630 19z m-1030 -3724 l0 -2590 -280 0 -280 0 0 2590 0
2590 280 0 280 0 0 -2590z m1110 2560 c0 -20 5 -30 15 -30 10 0 15 -10 15 -30
0 -16 5 -30 10 -30 6 0 10 -13 10 -30 0 -16 5 -30 10 -30 6 0 10 -16 10 -35 0
-24 5 -35 15 -35 10 0 15 -10 15 -30 0 -16 5 -30 10 -30 6 0 10 -13 10 -30 0
-20 5 -30 15 -30 10 0 15 -10 15 -30 0 -16 5 -30 10 -30 6 0 10 -13 10 -30 0
-20 5 -30 15 -30 10 0 15 -10 15 -30 0 -16 5 -30 10 -30 6 0 10 -16 10 -35 0
-19 5 -35 10 -35 6 0 10 -13 10 -30 0 -20 5 -30 15 -30 10 0 15 -10 15 -30 0
-16 5 -30 10 -30 6 0 10 -13 10 -30 0 -20 5 -30 15 -30 10 0 15 -10 15 -30 0
-16 5 -30 10 -30 6 0 10 -13 10 -30 0 -20 5 -30 15 -30 10 0 15 -11 15 -35 0
-19 5 -35 10 -35 6 0 10 -13 10 -30 0 -16 5 -30 10 -30 6 0 10 -13 10 -30 0
-20 5 -30 15 -30 10 0 15 -10 15 -30 0 -16 5 -30 10 -30 6 0 10 -13 10 -30 0
-20 5 -30 15 -30 10 0 15 -10 15 -30 0 -16 5 -30 10 -30 6 0 10 -16 10 -35 0
-19 5 -35 10 -35 6 0 10 -13 10 -30 0 -20 5 -30 15 -30 10 0 15 -10 15 -30 0
-16 5 -30 10 -30 6 0 10 -13 10 -30 0 -20 5 -30 15 -30 10 0 15 -10 15 -30 0
-16 5 -30 10 -30 6 0 10 -13 10 -30 0 -20 5 -30 15 -30 10 0 15 -11 15 -35 0
-19 5 -35 10 -35 6 0 10 -13 10 -30 0 -16 5 -30 10 -30 6 0 10 -13 10 -30 0
-20 5 -30 15 -30 10 0 15 -10 15 -30 0 -16 5 -30 10 -30 6 0 10 -13 10 -30 0
-20 5 -30 15 -30 10 0 15 -10 15 -30 0 -16 5 -30 10 -30 6 0 10 -16 10 -35 0
-24 5 -35 15 -35 10 0 15 -10 15 -30 0 -16 5 -30 10 -30 6 0 10 -13 10 -30 0
-16 5 -30 10 -30 6 0 10 -13 10 -30 0 -20 5 -30 15 -30 10 0 15 -10 15 -30 0
-16 5 -30 10 -30 6 0 10 -13 10 -30 0 -20 5 -30 15 -30 10 0 15 -11 15 -35 0
-19 5 -35 10 -35 6 0 10 -13 10 -30 0 -20 5 -30 15 -30 10 0 15 -10 15 -30 0
-16 5 -30 10 -30 6 0 10 -13 10 -30 0 -16 5 -30 10 -30 6 0 10 -13 10 -30 0
-20 5 -30 15 -30 10 0 15 -10 15 -30 0 -16 5 -30 10 -30 6 0 10 -16 10 -35 0
-24 5 -35 15 -35 10 0 15 -10 15 -30 0 -16 5 -30 10 -30 6 0 10 -13 10 -30 0
-16 5 -30 10 -30 6 0 10 -13 10 -30 0 -20 5 -30 15 -30 10 0 15 -10 15 -30 0
-16 5 -30 10 -30 6 0 10 -13 10 -30 0 -20 5 -30 15 -30 10 0 15 -11 15 -35 0
-19 5 -35 10 -35 6 0 10 -13 10 -30 0 -20 5 -30 15 -30 10 0 15 -10 15 -30 0
-16 5 -30 10 -30 6 0 10 -13 10 -30 0 -16 5 -30 10 -30 6 0 10 -13 10 -30 0
-20 5 -30 15 -30 10 0 15 -10 15 -30 0 -16 5 -30 10 -30 7 0 10 592 10 1755
l0 1755 280 0 280 0 0 -2586 c0 -2227 -2 -2587 -14 -2600 -12 -11 -61 -14
-265 -14 -161 0 -251 4 -251 10 0 6 -7 10 -15 10 -8 0 -15 9 -15 20 0 11 -4
20 -10 20 -5 0 -10 14 -10 30 0 20 -5 30 -15 30 -10 0 -15 10 -15 30 0 17 -4
30 -10 30 -5 0 -10 16 -10 35 0 19 -4 35 -10 35 -5 0 -10 18 -10 40 0 29 -4
40 -15 40 -10 0 -15 10 -15 30 0 17 -4 30 -10 30 -5 0 -10 14 -10 30 0 20 -5
30 -15 30 -10 0 -15 10 -15 30 0 17 -4 30 -10 30 -5 0 -10 16 -10 35 0 24 -5
35 -15 35 -10 0 -15 10 -15 30 0 17 -4 30 -10 30 -5 0 -10 14 -10 30 0 17 -4
30 -10 30 -5 0 -10 18 -10 40 0 29 -4 40 -15 40 -10 0 -15 10 -15 30 0 17 -4
30 -10 30 -5 0 -10 14 -10 30 0 20 -5 30 -15 30 -10 0 -15 11 -15 35 0 19 -4
35 -10 35 -5 0 -10 14 -10 30 0 17 -4 30 -10 30 -5 0 -10 14 -10 30 0 20 -5
30 -15 30 -10 0 -15 10 -15 30 0 17 -4 30 -10 30 -5 0 -10 14 -10 30 0 20 -5
30 -15 30 -11 0 -15 11 -15 40 0 22 -4 40 -10 40 -5 0 -10 16 -10 35 0 24 -5
35 -15 35 -10 0 -15 10 -15 30 0 17 -4 30 -10 30 -5 0 -10 14 -10 30 0 17 -4
30 -10 30 -5 0 -10 14 -10 30 0 20 -5 30 -15 30 -10 0 -15 10 -15 30 0 17 -4
30 -10 30 -5 0 -10 14 -10 30 0 20 -5 30 -15 30 -11 0 -15 12 -15 45 0 25 -4
45 -10 45 -5 0 -10 14 -10 30 0 20 -5 30 -15 30 -10 0 -15 10 -15 30 0 17 -4
30 -10 30 -5 0 -10 14 -10 30 0 17 -4 30 -10 30 -5 0 -10 14 -10 30 0 20 -5
30 -15 30 -10 0 -15 11 -15 35 0 19 -4 35 -10 35 -5 0 -10 14 -10 30 0 20 -5
30 -15 30 -11 0 -15 11 -15 40 0 22 -4 40 -10 40 -5 0 -10 14 -10 30 0 20 -5
30 -15 30 -10 0 -15 10 -15 30 0 17 -4 30 -10 30 -5 0 -10 14 -10 30 0 17 -4
30 -10 30 -5 0 -10 16 -10 35 0 24 -5 35 -15 35 -10 0 -15 10 -15 30 0 17 -4
30 -10 30 -5 0 -10 14 -10 30 0 20 -5 30 -15 30 -10 0 -15 10 -15 30 0 17 -4
30 -10 30 -5 0 -10 18 -10 40 0 22 -4 40 -10 40 -5 0 -10 14 -10 30 0 20 -5
30 -15 30 -10 0 -15 11 -15 35 0 19 -4 35 -10 35 -5 0 -10 14 -10 30 0 20 -5
30 -15 30 -10 0 -15 10 -15 30 0 17 -4 30 -10 30 -5 0 -10 14 -10 30 0 20 -5
30 -15 30 -10 0 -15 10 -15 30 0 17 -4 30 -10 30 -5 0 -10 20 -10 45 0 25 -4
45 -10 45 -5 0 -10 14 -10 30 0 20 -5 30 -15 30 -10 0 -15 10 -15 30 0 17 -4
30 -10 30 -5 0 -10 14 -10 30 0 20 -5 30 -15 30 -10 0 -15 10 -15 30 0 17 -4
30 -10 30 -5 0 -10 14 -10 30 0 20 -5 30 -15 30 -10 0 -15 11 -15 35 0 19 -4
35 -10 35 -5 0 -10 14 -10 30 0 17 -4 30 -10 30 -5 0 -10 18 -10 40 0 29 -4
40 -15 40 -10 0 -15 10 -15 30 0 17 -4 30 -10 30 -7 0 -10 -627 -10 -1860 0
-1647 -2 -1860 -15 -1860 -8 0 -15 -4 -15 -10 0 -6 -95 -10 -265 -10 l-265 0
0 2600 0 2600 290 0 290 0 0 -30z"/>
</g>
</svg>
