<?xml version="1.0" encoding="UTF-8"?>
<svg version="1.1" xmlns="http://www.w3.org/2000/svg" width="240" height="240">
<path d="M0 0 C0.82179632 -0.00453111 1.64359265 -0.00906223 2.49029189 -0.01373065 C5.25390454 -0.02642706 8.01732143 -0.02475089 10.78096008 -0.02310181 C12.75854751 -0.02908393 14.7361326 -0.03588874 16.7137146 -0.04345703 C22.09408024 -0.06115987 27.4743823 -0.06581431 32.85477424 -0.0670886 C37.3451657 -0.06898584 41.83554229 -0.07634165 46.32592803 -0.08343279 C56.92227448 -0.09973184 67.51858692 -0.10460049 78.11494446 -0.10317993 C89.04453482 -0.10197918 99.97392749 -0.12306436 110.90346783 -0.15466726 C120.28532614 -0.18082809 129.66711989 -0.19154725 139.04901439 -0.19026911 C144.6529626 -0.18975928 150.25673532 -0.1954541 155.8606472 -0.21662521 C161.13430684 -0.23600335 166.4076236 -0.23613479 171.68129539 -0.22159195 C173.61462403 -0.219502 175.5479741 -0.22421582 177.48126602 -0.23631287 C180.12585145 -0.25178565 182.7692577 -0.24244398 185.41381836 -0.22705078 C186.55475206 -0.24248147 186.55475206 -0.24248147 187.71873492 -0.25822389 C193.93445349 -0.17856984 199.33542711 1.66411943 203.86421204 6.04867554 C204.2264386 6.61586304 204.58866516 7.18305054 204.96186829 7.76742554 C205.53227844 8.61820679 205.53227844 8.61820679 206.11421204 9.48617554 C208.37554765 13.91179374 208.17271273 18.45648387 208.17153931 23.3253479 C208.17521599 24.1439151 208.17889268 24.9624823 208.18268079 25.80585456 C208.19370586 28.55249134 208.19755946 31.29909027 208.20137024 34.04574585 C208.20763572 36.01362732 208.2142826 37.9815076 208.22128296 39.9493866 C208.2423137 46.41476621 208.25268367 52.88014604 208.26264954 59.34555054 C208.2666973 61.57170372 208.27081423 63.79785678 208.27499962 66.0240097 C208.29404824 76.48168022 208.30828059 86.93934368 208.31661159 97.39702821 C208.32638652 109.46777904 208.3527142 121.53834662 208.39311248 133.60903287 C208.42326959 142.93994848 208.43808004 152.27081153 208.4413926 161.60177493 C208.44374332 167.17442121 208.45270707 172.74687164 208.47785378 178.31946564 C208.5011326 183.5627551 208.50536838 188.80571972 208.49509239 194.04904747 C208.4945969 195.97109495 208.50092136 197.89315841 208.51464844 199.81515694 C208.53237248 202.44434874 208.52525899 205.07237532 208.51211548 207.7015686 C208.52308472 208.457618 208.53405397 209.2136674 208.54535562 209.99262738 C208.47078038 216.19462613 206.63068549 221.62747844 202.20796204 226.10726929 C201.6317511 226.46949585 201.05554016 226.83172241 200.46186829 227.20492554 C199.59368469 227.77533569 199.59368469 227.77533569 198.70796204 228.35726929 C194.61815863 230.5682303 190.71128399 230.41569625 186.20059204 230.41459656 C185.39512993 230.41827325 184.58966781 230.42194993 183.75979775 230.42573804 C181.05151343 230.43678135 178.34326747 230.44061982 175.63496399 230.44442749 C173.69678627 230.45069168 171.75860976 230.45733844 169.82043457 230.46434021 C164.54752014 230.48175453 159.27461477 230.49230328 154.00167871 230.50054574 C150.70752 230.50569527 147.4133641 230.51177104 144.11920738 230.51805687 C133.8131713 230.53711065 123.50714238 230.55134107 113.20109206 230.55966884 C101.30352151 230.56944121 89.406137 230.59576006 77.508632 230.63616973 C68.31361651 230.6663289 59.11865436 230.68113755 49.92359036 230.68444985 C44.43141155 230.68680065 38.93943145 230.69576506 33.44730568 230.72091103 C28.27871869 230.744193 23.11046124 230.74842437 17.9418354 230.73814964 C16.04720209 230.7376542 14.15255254 230.74397718 12.2579689 230.75770569 C9.66594021 230.77543356 7.07509301 230.76831441 4.48306274 230.75517273 C3.73800407 230.76614198 2.9929454 230.77711122 2.22530919 230.78841287 C-3.94246588 230.71321292 -9.32604725 228.83262833 -13.81547546 224.48617554 C-14.17770203 223.91898804 -14.53992859 223.35180054 -14.91313171 222.76742554 C-15.29340515 222.20023804 -15.67367859 221.63305054 -16.06547546 221.04867554 C-18.32917556 216.61842985 -18.11920143 212.07621049 -18.10934448 207.20277405 C-18.11161004 206.38350128 -18.1138756 205.56422852 -18.11620981 204.72012931 C-18.12254676 201.97115062 -18.12172063 199.22222127 -18.12089539 196.47323608 C-18.12388708 194.50373267 -18.12728964 192.53422984 -18.131073 190.56472778 C-18.13991655 185.21135645 -18.14225127 179.8580011 -18.14288878 174.50462317 C-18.14383787 170.03646037 -18.14751621 165.56830129 -18.15106088 161.10013992 C-18.15920695 150.55799948 -18.16164499 140.01586759 -18.16093445 129.47372437 C-18.16033375 118.59811862 -18.17088374 107.72256249 -18.18667811 96.84696931 C-18.19975354 87.51097304 -18.20511834 78.174993 -18.20447904 68.83898765 C-18.20422403 63.26252583 -18.20707661 57.68610808 -18.21765709 52.10965538 C-18.22733796 46.8639745 -18.22741728 41.61837984 -18.22014046 36.37269592 C-18.21909458 34.44862556 -18.22145771 32.52454982 -18.22750092 30.60048866 C-18.23522335 27.9712338 -18.23057432 25.34227645 -18.22286987 22.71302795 C-18.22801344 21.95406572 -18.233157 21.19510348 -18.23845643 20.41314238 C-18.19881406 14.27875037 -17.63012973 9.17646171 -13.53813171 4.45492554 C-8.87850885 0.4771987 -5.92746317 -0.02378742 0 0 Z M35.02436829 58.26742554 C35.02436829 95.88742554 35.02436829 133.50742554 35.02436829 172.26742554 C40.63436829 172.26742554 46.24436829 172.26742554 52.02436829 172.26742554 C52.02436829 134.64742554 52.02436829 97.02742554 52.02436829 58.26742554 C46.41436829 58.26742554 40.80436829 58.26742554 35.02436829 58.26742554 Z M71.02436829 58.26742554 C71.02436829 95.88742554 71.02436829 133.50742554 71.02436829 172.26742554 C76.96436829 172.26742554 82.90436829 172.26742554 89.02436829 172.26742554 C89.17400501 143.91957909 88.72529347 115.60642722 88.02436829 87.26742554 C90.02436829 88.26742554 90.02436829 88.26742554 90.81173706 90.1219635 C91.06438828 90.93526627 91.31703949 91.74856903 91.5773468 92.58651733 C91.8687706 93.5116362 92.1601944 94.43675507 92.46044922 95.38990784 C92.77158157 96.40523087 93.08271393 97.42055389 93.40327454 98.46664429 C93.73160782 99.51737625 94.0599411 100.56810822 94.39822388 101.65068054 C95.46854266 105.08316481 96.52775943 108.5189676 97.58686829 111.95492554 C98.31432916 114.29429447 99.04235686 116.63348722 99.77095032 118.97250366 C102.90097998 129.04158127 106.00114258 139.1192447 109.01264954 149.22445679 C109.22476578 149.93599411 109.43688202 150.64753143 109.65542603 151.38063049 C110.60050991 154.55836439 111.5360983 157.73853833 112.4601593 160.92245483 C112.77783264 162.00567017 113.09550598 163.0888855 113.42280579 164.20492554 C113.8199176 165.57971069 113.8199176 165.57971069 114.22505188 166.98226929 C114.99896222 169.49893063 114.99896222 169.49893063 117.02436829 172.26742554 C129.23436829 172.26742554 141.44436829 172.26742554 154.02436829 172.26742554 C154.02436829 134.64742554 154.02436829 97.02742554 154.02436829 58.26742554 C148.41436829 58.26742554 142.80436829 58.26742554 137.02436829 58.26742554 C137.02436829 94.56742554 137.02436829 130.86742554 137.02436829 168.26742554 C135.02436829 167.26742554 135.02436829 167.26742554 133.94966125 164.62680054 C133.55923645 163.43570679 133.16881165 162.24461304 132.76655579 161.01742554 C132.54659943 160.35321594 132.32664307 159.68900635 132.10002136 159.00466919 C131.35922747 156.76123549 130.62936612 154.51439332 129.89936829 152.26742554 C129.37557655 150.67379638 128.85114687 149.08037678 128.3261261 147.4871521 C126.86756154 143.05333663 125.41918891 138.61625159 123.97322083 134.17831421 C122.99147054 131.16650188 122.00771603 128.15535068 121.02339172 125.14437866 C115.38478514 107.89608878 115.38478514 107.89608878 112.80903625 99.97836304 C108.2770339 86.05331998 103.66759407 72.15582976 99.02436829 58.26742554 C89.78436829 58.26742554 80.54436829 58.26742554 71.02436829 58.26742554 Z " fill="#010101" transform="translate(24.975631713867188,4.732574462890625)"/>
<path d="M0 0 C0.33 0 0.66 0 1 0 C1.19425873 2.79134852 1.38069517 5.58283687 1.5625 8.375 C1.61857422 9.1690625 1.67464844 9.963125 1.73242188 10.78125 C2.11328125 16.7734375 2.11328125 16.7734375 1 19 C1.66 19.33 2.32 19.66 3 20 C2.34 20 1.68 20 1 20 C0.67 21.32 0.34 22.64 0 24 C-1.2229217 20.3312349 -1.14563812 16.9430531 -1.125 13.125 C-1.12886719 12.41730469 -1.13273437 11.70960938 -1.13671875 10.98046875 C-1.12966857 7.19451956 -0.90907953 3.67960763 0 0 Z " fill="#433E42" transform="translate(114,153)"/>
<path d="M0 0 C0.66 0 1.32 0 2 0 C2.53394179 1.4117783 3.05165104 2.82970244 3.5625 4.25 C3.85253906 5.03890625 4.14257812 5.8278125 4.44140625 6.640625 C5.04522837 9.19103452 4.8473932 10.55322229 4 13 C3.67 12.01 3.34 11.02 3 10 C2.34 9.67 1.68 9.34 1 9 C0.67 9.99 0.34 10.98 0 12 C0 8.04 0 4.08 0 0 Z " fill="#2E262D" transform="translate(114,93)"/>
</svg>
